<svg viewBox="0 0 64 64" xmlns="http://www.w3.org/2000/svg">
  <path d="M 32 12 C 33.4 12 34.665 12.575 35.573 13.502 C 35.584 13.513 35.596 13.525 35.607 13.536 L 49.749 27.678 C 51.701 29.63 51.701 32.796 49.749 34.749 C 47.796 36.701 44.63 36.701 42.678 34.749 L 37 29.071 L 37 47 C 37 49.761 34.761 52 32 52 C 29.239 52 27 49.761 27 47 L 27 29.071 L 21.322 34.749 C 19.37 36.701 16.204 36.701 14.251 34.749 C 12.299 32.796 12.299 29.63 14.251 27.678 L 28.393 13.536 C 28.407 13.522 28.421 13.508 28.435 13.494 C 29.342 12.572 30.605 12 32 12 Z" style="fill: none; stroke: rgb(0, 0, 0); stroke-width: 4px;"></path>
</svg>