<svg viewBox="0 0 64 64" xmlns="http://www.w3.org/2000/svg">
  <path d="M 31.999 6 C 33.865 6 35.551 6.747 36.761 7.953 C 36.776 7.967 36.792 7.982 36.807 7.997 L 55.655 26.381 C 58.256 28.919 58.256 33.035 55.655 35.574 C 53.052 38.111 48.832 38.111 46.231 35.574 L 38.663 28.192 L 38.663 51.5 C 38.663 55.089 35.679 58 31.999 58 C 28.32 58 25.336 55.089 25.336 51.5 L 25.336 28.192 L 17.768 35.574 C 15.167 38.111 10.947 38.111 8.344 35.574 C 5.743 33.035 5.743 28.919 8.344 26.381 L 27.192 7.997 C 27.211 7.979 27.23 7.96 27.248 7.942 C 28.457 6.744 30.14 6 31.999 6 Z" style="fill: none; stroke-width: 4px; stroke: rgb(255, 255, 255);"></path>
</svg>