<svg viewBox="0 0 160 160" xmlns="http://www.w3.org/2000/svg">
  <path d="M 16.968 80 C 16.968 80 33.814 43.181 80 43.376 C 126.852 43.574 143.032 80 143.032 80 C 143.032 80 126.518 116.579 80 116.625 C 33.812 116.671 16.968 80 16.968 80 Z M 79.835 103.5 C 92.631 103.5 103.003 93.128 103.003 80.332 C 103.003 67.535 92.631 57.162 79.835 57.162 C 67.038 57.162 56.665 67.535 56.665 80.332 C 56.665 93.128 67.038 103.5 79.835 103.5 Z" stroke-width="0" style="fill: rgba(255, 255, 255, 0.267); mix-blend-mode: normal;" fill-rule="nonzero" stroke="none" stroke-linecap="butt" stroke-linejoin="miter" stroke-miterlimit="10" stroke-dasharray="" stroke-dashoffset="0"></path>
  <path d="M 68.415 80 C 68.415 73.511 73.676 68.251 80.165 68.251 C 86.654 68.251 91.915 73.511 91.915 80 C 91.915 86.491 86.654 91.75 80.165 91.75 C 73.676 91.75 68.415 86.491 68.415 80 Z" stroke-width="0.5" style="fill: rgba(255, 255, 255, 0.267); mix-blend-mode: normal;" fill-rule="nonzero" stroke="none" stroke-linecap="butt" stroke-linejoin="miter" stroke-miterlimit="10" stroke-dasharray="" stroke-dashoffset="0"></path>
</svg>